<?xml version="1.0" encoding="utf-8"?>
<?xml-stylesheet type="text/xsl" href="rss1.xsl"?>
<rss version="2.0" xmlns:atom="http://www.w3.org/2005/Atom" xmlns:content="http://purl.org/rss/1.0/modules/content/" xmlns:dc="http://purl.org/dc/elements/1.1/" xmlns:media="http://search.yahoo.com/mrss/">
<channel>
 <title>Getty</title>
 <link>http://www.gettyimg.com/</link>
 <atom:link href="http://www.gettyimg.com/" rel="self" type="application/rss+xml" />

 
                <item>
                <title><![CDATA[【HD Live Performances】FEED - 2023.22.06 Global Citizen Festival Paris Sat FEED 1080i 4.2.0 H264 MPA2.0-TSS]]></title>
                <link><![CDATA[https://sharemania.us/threads/2023-22-06-global-citizen-festival-paris-sat-feed-1080i-4-2-0-h264-mpa2-0-tss.223200/]]></link>
                <description><![CDATA[<article>
<blockquote class="messageText SelectQuoteContainer ugc baseHtml">
<img src="https://i.imgur.com/ob8kXg4.png" class="bbCodeImage LbImage" alt="[​IMG]" data-url="https://i.imgur.com/ob8kXg4.png" style=""> <br>
<br>
<div class="ToggleTriggerAnchor bbCodeSpoilerContainer">
<button type="button" class="button bbCodeSpoilerButton ToggleTrigger Tooltip JsOnly" data-target="> .SpoilerTarget"><span>Spoiler: <span class="SpoilerTitle">Media Info</span></span></button>
<div class="SpoilerTarget bbCodeSpoilerText">General<br>
Unique ID : 28440012586510668675388663767395804776 (0x156558E12D05B63EA67ECE6334DD2668)<br>
Complete name : D:\Records\2023.22.06 Global Citizen Festival Paris Sat FEED 1080i 4.2.0 H264 MPA2.0.mkv<br>
Format : Matroska<br>
Format version : Version 4<br>
File size : 26.9 GiB<br>
Duration : 4 h 33 min<br>
Overall bit rate mode : Constant<br>
Overall bit rate : 14.1 Mb/s<br>
Writing application : Lavf58.76.100<br>
Writing library : Lavf58.76.100<br>
ErrorDetectionType : Per level 1<br>
Video<br>
ID : 1<br>
Format : AVC<br>
Format/Info : Advanced Video Codec<br>
Format profile : High@L4<br>
Format settings : CABAC / 3 Ref Frames<br>
Format settings, CABAC : Yes<br>
Format settings, Reference frames : 3 frames<br>
Format settings, GOP : M=4, N=24<br>
Codec ID : V_MPEG4/ISO/AVC<br>
Duration : 4 h 33 min<br>
Bit rate mode : Constant<br>
Bit rate : 13.4 Mb/s<br>
Width : 1 920 pixels<br>
Height : 1 080 pixels<br>
Display aspect ratio : 16:9<br>
Frame rate mode : Variable<br>
Original frame rate : 25.000 FPS<br>
Color space : YUV<br>
Chroma subsampling : 4:2:0<br>
Bit depth : 8 bits<br>
Scan type : MBAFF<br>
Scan type, store method : Interleaved fields<br>
Scan order : Top Field First<br>
Bits/(Pixel*Frame) : 0.259<br>
Stream size : 24.5 GiB (91%)<br>
Default : Yes<br>
Forced : No<br>
Color range : Limited<br>
Color primaries : BT.709<br>
Transfer characteristics : BT.709<br>
Matrix coefficients : BT.709<br>
Audio #1<br>
ID : 2<br>
Format : MPEG Audio<br>
Format version : Version 1<br>
Format profile : Layer 2<br>
Codec ID : A_MPEG/L2<br>
Codec ID/Hint : MP2<br>
Duration : 4 h 33 min<br>
Bit rate mode : Constant<br>
Bit rate : 320 kb/s<br>
Channel(s) : 2 channels<br>
Sampling rate : 48.0 kHz<br>
Compression mode : Lossy<br>
Delay relative to video : -72 ms<br>
Stream size : 626 MiB (2%)<br>
Language : English<br>
Default : Yes<br>
Forced : No<br>
Audio #2<br>
ID : 3<br>
Format : MPEG Audio<br>
Format version : Version 1<br>
Format profile : Layer 2<br>
Codec ID : A_MPEG/L2<br>
Codec ID/Hint : MP2<br>
Duration : 4 h 33 min<br>
Bit rate mode : Constant<br>
Bit rate : 320 kb/s<br>
Channel(s) : 2 channels<br>
Sampling rate : 48.0 kHz<br>
Compression mode : Lossy<br>
Delay relative to video : -72 ms<br>
Stream size : 626 MiB (2%)<br>
Language : French<br>
Default : No<br>
Forced : No<br>
Audio #3<br>
ID : 4<br>
Format : MPEG Audio<br>
Format version : Version 1<br>
Format profile : Layer 2<br>
Codec ID : A_MPEG/L2<br>
Codec ID/Hint : MP2<br>
Duration : 4 h 33 min<br>
Bit rate mode : Constant<br>
Bit rate : 320 kb/s<br>
Channel(s) : 2 channels<br>
Sampling rate : 48.0 kHz<br>
Compression mode : Lossy<br>
Delay relative to video : -72 ms<br>
Stream size : 626 MiB (2%)<br>
Language : French<br>
Default : No<br>
Forced : No</div>
</div><br>
<div class="bbCodeBlock bbCodeVfcHH HiddenContent">
<div class="attribution type">Hidden Content:</div>
<blockquote>You must reply before you can see the hidden data contained here.</blockquote>
</div>
<div class="messageTextEndMarker">&nbsp;</div>
</blockquote>
</article>]]></description>
                <author><![CDATA[theslothsidd]]></author>
                </item>

                
                <item>
                <title><![CDATA[【Albums (lossless)】FLAC - Daft Punk - Homework (Vinyl) [24-bit/96kHz]]]></title>
                <link><![CDATA[https://sharemania.us/threads/daft-punk-homework-vinyl-24-bit-96khz.223202/]]></link>
                <description><![CDATA[<article>
<blockquote class="messageText SelectQuoteContainer ugc baseHtml">
<img src="https://cdn.discordapp.com/attachments/694889687214719066/1121731949619322911/cover.jpg" class="bbCodeImage LbImage" alt="[​IMG]" data-url="https://cdn.discordapp.com/attachments/694889687214719066/1121731949619322911/cover.jpg" style=""> <br>
<b>Daft Punk - Homework (Vinyl Rip 24-96)<br>
<div class="bbCodeBlock bbCodeVfcHH HiddenContent">
<div class="attribution type">Hidden Content:</div>
<blockquote>You must either reply or click 'Like' to see the hidden information contained here.</blockquote>
</div></b>
<div class="messageTextEndMarker">&nbsp;</div>
</blockquote>
</article>]]></description>
                <author><![CDATA[n45lr]]></author>
                </item>

                
                <item>
                <title><![CDATA[【Requests】[REQ AUD] - PG Roxette - Incognito - EP (Qobuz Hi-Res)]]></title>
                <link><![CDATA[https://sharemania.us/threads/pg-roxette-incognito-ep-qobuz-hi-res.223201/]]></link>
                <description><![CDATA[<article>
<blockquote class="messageText SelectQuoteContainer ugc baseHtml">
hi<br>
<br>
can anyone get <br>
<br>
<a href="https://www.qobuz.com/gb-en/album/incognito-ep-pg-roxette-roxette-per-gessle/ch5np8nnfqnyb" target="_blank" class="externalLink" rel="nofollow">https://www.qobuz.com/gb-en/album/incognito-ep-pg-roxette-roxette-per-gessle/ch5np8nnfqnyb</a><br>
<br>
thanks <img src="styles/default/xenforo/smilies/big_smile-48.png" class="mceSmilie" alt=":)" title="Smile    :)">
<div class="messageTextEndMarker">&nbsp;</div>
</blockquote>
</article>]]></description>
                <author><![CDATA[Jaspar]]></author>
                </item>

                </channel></rss>